<?xml version="1.0" standalone="no"?>
<!DOCTYPE svg PUBLIC "-//W3C//DTD SVG 20010904//EN"
 "http://www.w3.org/TR/2001/REC-SVG-20010904/DTD/svg10.dtd">
<svg version="1.0" xmlns="http://www.w3.org/2000/svg"
 width="256.000000pt" height="256.000000pt" viewBox="0 0 256.000000 256.000000"
 preserveAspectRatio="xMidYMid meet">
<metadata>
Created by potrace 1.14, written by Peter Selinger 2001-2017
</metadata>
<g transform="translate(0.000000,256.000000) scale(0.100000,-0.100000)"
fill="#000000" stroke="none">
<path d="M832 2045 c-112 -32 -186 -86 -293 -217 -115 -141 -134 -153 -232
-154 -107 0 -111 -6 -64 -115 57 -135 84 -235 101 -376 20 -169 58 -276 131
-376 113 -153 306 -276 521 -334 86 -23 119 -26 254 -27 131 0 169 3 244 23
172 45 299 114 388 210 44 47 65 83 112 194 102 237 193 353 351 446 63 38 80
53 80 71 0 19 -9 25 -68 39 -85 22 -153 67 -150 102 4 49 -19 127 -47 166 -17
23 -54 53 -87 71 -33 17 -72 48 -89 71 -88 116 -251 188 -405 179 -53 -3 -83
-12 -163 -51 -54 -26 -110 -47 -125 -47 -15 0 -54 16 -87 37 -141 87 -161 95
-242 99 -49 3 -96 -1 -130 -11z m213 -74 c22 -10 69 -37 104 -60 111 -71 165
-73 277 -11 87 49 151 62 230 50 81 -13 175 -54 227 -100 45 -39 46 -50 7 -50
-33 0 -126 -33 -179 -63 -96 -55 -187 -141 -252 -239 l-25 -37 0 48 c1 27 -2
52 -6 56 -15 15 -28 -9 -28 -52 0 -88 -42 -138 -125 -150 l-45 -6 -1 39 c-1
51 -12 87 -27 92 -9 3 -12 -15 -12 -62 0 -62 -1 -66 -22 -66 -13 0 -46 11 -75
24 -45 21 -53 30 -64 65 -9 30 -10 53 -2 86 7 29 7 48 1 51 -19 12 -32 -17
-36 -80 l-4 -64 -47 20 c-75 33 -76 36 -59 187 2 13 -2 26 -9 28 -17 6 -37
-64 -37 -129 l1 -58 -36 0 c-48 0 -62 11 -70 51 -4 22 -14 35 -25 37 -16 4
-18 -1 -13 -29 3 -19 8 -42 12 -51 5 -14 -6 -21 -62 -38 -83 -26 -132 -21
-198 21 -37 23 -50 27 -61 18 -8 -6 -14 -15 -14 -20 0 -4 45 -38 100 -74 54
-36 133 -93 175 -126 l76 -60 -40 -30 c-23 -16 -41 -33 -41 -38 0 -22 20 -19
56 9 47 36 52 36 92 6 l32 -23 -39 -47 c-52 -64 -67 -94 -54 -107 7 -7 27 13
63 61 30 38 55 70 57 70 1 0 22 -10 46 -21 l44 -22 -23 -58 c-32 -77 -41 -139
-22 -139 9 0 22 26 35 73 32 105 39 113 96 99 25 -7 57 -12 71 -12 l26 0 0
-115 c0 -91 3 -115 14 -115 19 0 28 69 20 152 l-7 68 64 0 c35 0 74 3 87 6 18
5 25 0 38 -32 9 -21 21 -64 27 -96 7 -39 15 -58 25 -58 18 0 12 71 -12 140 -8
24 -13 46 -10 49 2 3 27 8 55 11 44 6 55 4 78 -16 31 -26 76 -105 86 -151 4
-19 13 -33 21 -33 30 0 8 87 -41 160 -19 29 -35 54 -35 56 0 2 19 4 43 4 45 0
79 -25 106 -78 14 -27 38 -24 33 4 -2 10 -14 33 -28 50 l-23 32 95 22 c120 27
211 73 296 149 37 32 80 62 97 66 34 7 58 30 41 40 -5 3 -19 3 -30 0 -25 -8
-25 -4 0 46 l21 40 29 -21 c16 -11 43 -26 60 -33 l30 -13 -47 -34 c-144 -103
-224 -215 -327 -457 -27 -62 -64 -130 -82 -152 -43 -50 -149 -120 -234 -154
-130 -53 -183 -62 -360 -62 -141 0 -176 4 -244 23 -165 47 -320 137 -423 245
-108 113 -144 199 -173 412 -19 138 -47 251 -88 351 l-21 52 48 6 c63 8 126
50 192 126 147 172 178 200 268 236 71 30 177 32 236 5z m992 -240 c127 -64
149 -175 67 -331 -68 -130 -182 -215 -333 -249 l-38 -8 77 77 c61 61 88 98
124 170 48 95 56 130 32 130 -8 0 -21 -21 -31 -50 -35 -106 -146 -244 -254
-315 -36 -25 -63 -31 -179 -46 -171 -22 -392 -35 -392 -23 0 5 35 32 76 59 91
60 188 161 299 310 45 61 100 126 121 146 156 140 317 189 431 130z"/>
<path d="M930 1932 c0 -5 24 -14 53 -21 32 -7 82 -31 127 -61 120 -80 201 -97
284 -59 32 15 35 34 4 24 -88 -26 -96 -27 -150 -11 -29 8 -84 36 -123 62 -85
57 -195 94 -195 66z"/>
<path d="M820 1914 c-47 -20 -102 -63 -95 -74 3 -5 23 3 45 19 22 15 53 34 70
41 16 7 30 16 30 21 0 12 -9 11 -50 -7z"/>
<path d="M1535 1892 c-21 -10 -35 -21 -30 -24 12 -7 115 24 115 35 0 13 -44 7
-85 -11z"/>
<path d="M1823 1698 c-18 -6 -33 -15 -33 -21 0 -5 8 -6 17 -2 21 7 94 23 138
28 17 2 3 4 -30 4 -33 1 -75 -4 -92 -9z"/>
<path d="M1633 1551 c-55 -54 -132 -143 -170 -197 -72 -100 -107 -138 -176
-189 -40 -30 -44 -45 -6 -24 46 24 133 115 199 209 37 52 113 139 169 193 55
54 101 100 101 103 0 16 -29 -8 -117 -95z"/>
</g>
</svg>
