<?xml version="1.0" encoding="UTF-8"?>
<svg width="1200pt" height="1200pt" version="1.1" viewBox="0 0 1200 1200" xmlns="http://www.w3.org/2000/svg">
 <g>
  <path d="m42.277 689.34c-14.094-3.0195-18.117-14.723-21.012-26.297-3.6289-13.961-5.2383-28.367-4.7812-42.781 1.0117-77.961 27.527-153.45 75.496-214.91 43.309-53.375 91.129-102.92 142.94-148.1 26.996-22.211 57.422-39.891 90.09-52.344 11.898-6.0352 25.48-7.8906 38.559-5.2656s24.895 9.5781 33.539 19.738c16.23 17.238 38.504 27.934 51.715 48.57 5.4102 8.4297 11.199 4.7812 16.734 0v-0.003907c17.938-15.492 37.32-29.23 57.879-41.02 80.531-47.938 168.61-42.652 245.74 7.1719 41.398 26.676 67.695 66.184 99.781 100.66 35.984 38.879 62.156 84.68 92.23 127.84 22.898 32.59 44.668 66.059 68.07 98.27 23.02 31.707 51.789 58.809 84.809 79.898 15.066 11.238 33.57 16.887 52.344 15.98 8.5703-1.0703 17.18 1.6914 23.527 7.5508 4.6562 4.1523 2.0117 9.4375 1.2578 14.344-22.398-9.1836-42.781-2.1406-62.914 7.4219l0.003906 0.003906c-34.457 18.809-72.395 30.371-111.48 33.973-47.547 2.7656-95.23 2.1367-142.68-1.8906-69.961-7.4219-139.67-17.617-209.25-29.066-114.75-18.875-229.76-36.617-345.52-48.191v0.003906c-65.863-8.3164-132.74-2.6992-196.29 16.48-25.105 7.0469-47.891 20.625-66.039 39.344-18.145 18.723-31.004 41.922-37.266 67.23-7.4297 21.164-5.6953 44.469 4.7812 64.297 25.164 42.781 55.613 79.145 106.07 93.488 22.02 6.293 44.793 10.316 65.934 18.496v0.003906c16.957 6.9531 35.395 9.5039 53.602 7.4219-12.582-34.098 0-64.926 11.449-95.879 2.7695-7.1719 5.6641-14.219 8.1797-21.516 16.078-46.055 45.355-86.355 84.18-115.89 4.1523-3.2695 7.2969-9.4375 13.84-7.4219 1.4922 2.4766 0.77344 5.6914-1.6367 7.2969-38.215 34.047-67.906 76.582-86.695 124.19-10.695 28.562-22.27 57-21.012 88.078-0.61328 8.5781 1.7227 17.109 6.6211 24.18 4.8945 7.0703 12.059 12.254 20.305 14.699 45.551 13.84 91.223 27.18 139.79 24.41 37.746-2.1406 74.742-4.9062 112.11-4.6562h0.003906c110.06-0.19922 218.48-26.73 316.2-77.383 52.469-26.422 104.06-54.105 154.39-84.051 50.859-29.094 99.254-62.297 144.7-99.277 16.816-11.746 30.121-27.836 38.504-46.555 12.582 2.2656 10.445 9.6875 5.5352 16.859-11.094 17.191-25.152 32.27-41.52 44.543-22.652 16.105-44.797 31.832-66.816 47.812-80.652 59.012-169.74 102.42-259.32 146.46-70.816 35.863-148.07 57.25-227.24 62.914-51.59 3.2695-103.43 5.5352-155.02 9.3125-59.012 4.1523-114.88-10.57-170.12-27.555-18.117-5.5352-36.488-6.9219-54.484-11.449-27.051-6.9219-53.352-16.734-80.023-25.164-10.445-3.3984-20.637-7.8008-31.078-11.449l-0.003907-0.003906c-16.266-5.1602-31.238-13.738-43.91-25.168-27.355-23.508-48.672-53.238-62.16-86.691-5.9336-16.16-6.5508-33.797-1.7617-50.332 7.9531-28.73 21.086-55.766 38.754-79.773 22.48-19.457 48.438-34.488 76.504-44.289 3.7734-0.80859 7.0547-3.1094 9.0977-6.3867 2.0391-3.2734 2.6602-7.2344 1.7227-10.977-1.2148-10.234 1.0898-20.574 6.543-29.32 18.5-32.664 45.504-59.707 78.137-78.262 20.133-10.82 40.391-21.641 60.395-32.715 4.9062-2.7695 11.574-3.9023 11.574-11.199-5.1602-7.4219-15.727-5.9141-20.762-14.848 5.2852 0 9.4375 0.75391 13.59 1.3828 10.445 1.2578 20.133 3.7734 21.266-12.582 0.62891-8.0547 8.4297-5.0312 14.219-2.2656 8.9336 4.2773 15.477 13.84 27.43 10.82l0.003907 0.003906c27.93-7.5234 56.648-11.746 85.562-12.582 7.9258 0 12.582-3.9023 10.945-12.582v-0.003906c-2.3633-10.457 0.55469-21.414 7.8008-29.316-0.26172 11.734 1.6172 23.414 5.5352 34.477 1.7422 4.0156 6.0117 6.3047 10.32 5.5352 3.4414-0.30078 6.2891-2.793 7.0469-6.1641 1.7617-5.7891 0-12.582 8.9336-20.008 0 28.812 16.734 31.457 37.746 31.582 17.828 0.80859 35.598 2.6133 53.223 5.4141 10.523 3.4023 21.746 4.0547 32.59 1.8867-12.582-10.695-12.582-11.828-2.3906-19.125 2.0469-1.5508 4.2383-2.8984 6.543-4.0273 6.543-2.7695 14.219-2.0117 11.324 6.293-4.4023 12.582 10.445 16.23 10.066 18.496-3.0195 18.496 12.582 14.094 19.879 16.734h0.003906c56.293 19.086 110.99 42.605 163.57 70.336 39.637 21.391 75.496 47.812 116.26 68.449 40.77 20.633 80.027 37.496 120.42 54.355 23.965 9.3906 50.777 8.2461 73.859-3.1445-19.457-13.789-38.188-28.57-56.117-44.293-27.758-26.148-52.414-55.406-73.484-87.195-23.402-37.746-50.332-72.98-73.48-110.22-8.9961-15.41-19.859-29.652-32.336-42.406-6.793-6.543-11.574-14.598-17.742-21.391-35.484-39.508-61.781-87.195-110.35-115.13h-0.003906c-34.379-22.16-74.121-34.594-115-35.984-60.27 0.25391-118.14 23.629-161.69 65.301-7.5508 6.793-15.352 13.465-23.152 20.008-3.9023 3.3984-9.4375 2.8945-10.57-1.3828-8.0547-28.812-33.973-41.648-52.848-60.523h0.003907c-7.5039-8.9023-17.695-15.129-29.039-17.738-11.348-2.6094-23.234-1.4609-33.875 3.2695-29.496 11.098-57.152 26.582-82.035 45.926-48.941 40.852-94.012 86.133-134.64 135.26-27.305 33.848-53.352 68.953-65.809 111.36-17.359 59.266-27.68 119.41-6.4141 180.31zm391.7-159.42h7.0469c4.6367 19.422 5.3203 39.574 2.0117 59.266-4.1523 19.879-1.2578 23.531 18.371 28.562 7.418 1.8594 14.938 3.2891 22.523 4.2773 45.551 6.418 91.852 2.3906 137.4 9.5625 2.5508 0.24609 5.1211 0.24609 7.6758 0 11.324 0 17.113-5.6641 14.973-17.992-1.543-19.527 0.41797-39.172 5.7891-58.008 0.87891-4.1523 1.5117-10.57 9.4375-8.4297h-0.003906c1.7383 7.4766 1.3008 15.289-1.2578 22.523-2.6992 12.391-3.6758 25.094-2.8945 37.746 1.0078 21.141 3.1445 23.402 23.402 25.164 8.4297 0 16.859 1.7617 25.164 2.0117l0.003907 0.003906c36.461 3.0234 73.133 2.3906 109.47-1.8867 7.5508-1.1328 16.23-1.8867 20.258-8.9336 6.2266-11.086 11.73-22.559 16.484-34.352 1.1328-2.8945-2.6406-6.0391-5.5352-7.9258-12.582-7.9258-25.164-16.988-39.133-23.656-33.578-16.445-68.02-31.062-103.18-43.785-88.742-31.914-182.52-47.559-276.82-46.18-54.488 1.6367-107.85 15.891-155.9 41.648-5.5352 2.7695-11.199 5.5352-11.828 12.582-3.0508 21.871-0.71875 44.16 6.7969 64.926 2.9141 6.1797 8.3828 10.777 14.973 12.582 42.879 14.273 88.395 18.828 133.25 13.34 4.2188-0.24219 8.2383-1.8594 11.445-4.6133 3.207-2.75 5.418-6.4805 6.2969-10.613 2.6875-8.9727 3.9609-18.312 3.7734-27.68-0.125-13.086 0-26.676 0-40.141zm78.766 104.43c29.695 16.105 62.914 12.582 93.867 19.379 43.914 9.4375 88.957 12.582 133.25 20.508v0.003906c40.172 6.9766 80.902 10.262 121.67 9.8125 16.309 0.78906 32.57-2.3164 47.438-9.0586 1.3828-12.582-9.0586-16.484-14.344-23.531 6.0977-7.5391 14.492-12.887 23.906-15.223-12.254-18.934-31.305-32.445-53.223-37.75-5.0312 7.4219-2.2656 17.238-9.4375 25.164v0.003906c-11.996 12.711-28.469 20.246-45.926 21.012-52.594 5.2852-105.07 0-157.66-1.7617-46.555-0.75391-92.984-5.5352-139.54-8.5547zm-271.53-107.07c-16.344 8.6055-32.031 18.402-46.934 29.316-11.074 9.3125-8.9336 21.141-6.543 32.59 1.6367 8.1797 4.2773 17.113 15.098 17.617l0.003906-0.003906c17.75 3.1055 36.027 0.36719 52.09-7.8008-12.961-21.641-3.2695-46.805-13.715-71.719z"/>
  <path d="m204.21 667.32c-30.828 15.727-64.801 24.16-91.223 48.316-26.426 24.16-40.012 54.23-55.742 84.18 4.7812-63.922 81.914-134.38 146.96-132.5z"/>
  <path d="m387.29 745.58c-13.715 27.684-33.344 51.965-44.418 81.031-11.074 29.066-12.582 60.773-26.422 88.957 5.1562-64.172 19.5-124.69 70.84-169.99z"/>
  <path d="m231.64 826.99c6.543-28.688 17.488-54.484 43.031-71.09-3.5234 13.965-15.227 22.773-21.895 34.727s-13.711 24.285-21.137 36.363z"/>
  <path d="m194.65 908.4 14.219-39.762c5.0312 16.734-4.4023 28.941-8.5547 42.656z"/>
  <path d="m344.13 440.83c-9.3125 0-16.23 2.2656-20.258-5.6641-14.141-25.879-24.562-53.625-30.953-82.414-0.75391-3.3125-0.75391-6.7539 0-10.066 0.84766-2.2852 2.5664-4.1445 4.7812-5.1602 3.2734-1.3828 7.0547-0.011719 8.6836 3.1445 1.5156 2.0703 2.4688 4.5 2.7656 7.0469 1.8906 33.469 21.016 61.402 34.98 93.113z"/>
  <path d="m384.02 359.17c10.57 2.1406 9.5625 9.1836 10.82 14.469 3.5234 15.477 4.7812 31.582 16.734 43.914 3.5469 3.7852 4.5781 9.2812 2.6445 14.094-0.94141 2.2461-2.5156 4.168-4.5312 5.5352-1.4805 0.89062-3.2969 1.0195-4.8867 0.34766-1.5938-0.67188-2.7695-2.0625-3.1641-3.7422-11-23.375-17-48.789-17.617-74.617z"/>
  <path d="m532.37 423.46c7.4219-28.562 28.059-67.57 41.27-77.508-1.0078 21.77-19 55.113-41.648 77.133z"/>
  <path d="m531.99 423.09c-0.75781 7.3047-3.8984 14.156-8.9336 19.504-1.5547-3.7578-1.4258-8.0039 0.35547-11.656 1.7773-3.6562 5.0391-6.375 8.9531-7.4727z"/>
 </g>
</svg>
