<?xml version="1.0" encoding="UTF-8"?>
<svg width="1200pt" height="1200pt" version="1.1" viewBox="0 0 1200 1200" xmlns="http://www.w3.org/2000/svg">
 <g>
  <path d="m651.48 863.03c-48 0-96.258 1.0312-143.1-11.227-62.176-14.711-119.78-44.488-167.74-86.707-30.039-28.707-64.176-52.797-101.29-71.484-27.219-13.855-52.227-31.684-74.195-52.902-38.711-34.605-84.77-59.973-134.71-74.195-5.1602-1.6758-10.453-3.3555-15.613-5.418-5.1602-2.0664-12.902-2.9688-14.582-10.969-1.6758-8 6.3242-10.066 11.484-12.902 31.355-19.484 62.582-39.355 94.195-58.582 40.258-24.645 77.418-53.418 116.13-81.289 33.059-22.039 68.676-39.977 106.06-53.422 37.676-15.484 72.645-2.0664 105.55 17.031 19.098 11.098 37.676 23.227 56 35.484v0.003906c12.164 9.5312 27.203 14.648 42.652 14.508 15.453-0.14063 30.395-5.5312 42.383-15.285 22.93-15.625 48.129-27.637 74.707-35.609 44.324-15.98 93.59-10.098 132.91 15.867 40.516 25.805 78.711 54.969 117.93 82.711 57.16 40.645 111.23 85.805 172.39 120.64 37.086 20.879 76.73 36.844 117.94 47.484 4.2578 1.0312 9.8047 0.77344 10.066 7.0977 0.25781 6.3242-3.4844 6.1953-7.3555 6.9688-47.742 8.5156-85.16 38.711-125.03 62.84-55.484 33.289-109.68 68.516-167.74 97.16h-0.003906c-56.617 25.602-116.36 43.648-177.68 53.676-23.363 5.6719-47.316 8.5312-71.355 8.5156zm-119.74-386.45c-11.227-9.0312-7.2266-15.227-8.9023-20-4.1289-12-4.5156-26.711-17.289-33.418-35.227-18.582-66.195-43.871-102.45-60.902v-0.003907c-22.793-10.641-48.711-12.477-72.773-5.1602-34.059 9.2461-66.031 24.926-94.195 46.191-55.266 42.027-112.72 81.094-172.13 117.04-5.3594 3.0352-10.23 6.8633-14.453 11.352-12.902 14.453-9.6758 23.098 8.3867 27.355 17.992 4.2188 36.285 7.0234 54.711 8.3867 68.492 2.4961 136.99-4.6719 203.48-21.289 32-6.8398 64.516-11.227 95.871 0 62.711 22.711 125.29 19.355 188.13 2.8398 36.457-11.16 75.414-11.16 111.87 0 70.066 23.355 140.26 46.969 211.36 67.227 69.125 20.945 141.5 29.035 213.55 23.871 5.0312 0 11.484 0.77344 12.902-7.4844-6.4727-6.543-14.73-11.031-23.738-12.906-52.438-21.102-101.58-49.609-145.94-84.645-62.84-47.098-126.84-92.387-190.45-138.45v0.003906c-43.973-32.535-101.85-39.453-152.26-18.195-18.758 7.7891-36.84 17.109-54.062 27.871-18.664 10.652-30.297 30.383-30.582 51.871-0.64453 7.0977 3.2266 14.711-2.8398 23.227l-2.3242-52.645h0.003906c-12.461 12.613-18.328 30.312-15.871 47.871zm-224.13 233.16c16.645 16.516 31.613 32.645 47.871 47.484 55.324 49.965 125.18 80.938 199.36 88.387 58.734 8.2031 118.42 6.6328 176.64-4.6445 55.355-10.016 109.3-26.695 160.64-49.68 53.617-27.223 105.7-57.375 156-90.32 21.289-12.902 42.711-26.84 69.805-43.871-22.238 0.11719-44.469-1.0469-66.578-3.4844-3.625-0.10547-7.1914 0.93359-10.195 2.9688-28.062 14.223-57.738 25.012-88.387 32.129-36.516 9.9336-73.418 19.098-110.58 25.805h0.003906c-58.938 12.758-120.18 9.9102-177.68-8.2578-41.676-13.805-83.742-33.418-130.32-21.031h0.003906c-4.5586 0.83203-9.2461 0.56641-13.68-0.77344-69.395-14.762-140.15-22.199-211.1-22.195-22.496 0.13672-44.008-9.2344-59.223-25.805-4.0898-4.9141-8.8203-9.2539-14.066-12.906-31.484-19.613-69.418-23.227-102.2-40.129-3.3984-1.6914-7.5234-0.71484-9.8047 2.3242 0 1.6758 0 4 1.5469 4.9023 34.711 27.613 69.676 54.84 104.13 82.582 18.152 14.77 41.148 22.266 64.52 21.031h36c4.6445 0 9.9336 1.5469 9.418 7.4844-0.51563 5.9336-6.0664 5.418-10.582 6.0664-7.2266 0.25781-14.836-2.3242-21.547 1.9336zm286.06-73.289c1.6758 16.645-11.227 30.84 9.9336 36.773 64.516 17.934 125.68 42.453 194.84 28.516h0.003906c48.18-8.293 95.215-22.238 140.13-41.547 4.1602-1.9141 7.957-4.5352 11.223-7.7422 5.1602-5.0312 4.1289-9.8047-2.4531-12.902l0.003907-0.003906c-3.3633-1.5195-6.8125-2.8555-10.324-4-76.387-24.387-152.77-49.031-229.29-73.16-22.156-6.8516-45.535-8.7891-68.516-5.6758-20.258 2.582-39.613 9.0312-59.613 12.902-49.418 8.3867-99.871 14.84-147.87-2.8398-48-17.676-94.453-11.484-141.93 0-25.031 5.8047-24.902 6.1953-24.902 30.969 0 5.5469 0 11.098 0.64453 16.645h-0.003906c-0.17188 5.1523 1.5234 10.195 4.7695 14.203 3.2461 4.0039 7.832 6.707 12.91 7.6055 30.863 5.4141 62.09 8.5195 93.418 9.2891 11.484 0.77344 16-6.0664 16.387-17.547 0-8.1289-1.9336-18.324 8.7734-23.484 5.5469 9.0312 0.90234 17.16 0 25.031-1.6758 18.195 0 22.324 18.453 27.742 5.375 1.3281 10.859 2.1484 16.387 2.4492 24.816 1.9727 49.5 5.332 73.938 10.066 34.32 8.6445 59.484-1.5469 83.094-33.289z"/>
  <path d="m789.16 623.55c8.9023 21.16 18.066 42.711 4.6445 64.516-1.5469-21.031-13.418-41.805-4.6445-64.516z"/>
 </g>
</svg>
