<?xml version="1.0" encoding="UTF-8"?>
<svg width="1200pt" height="1200pt" version="1.1" viewBox="0 0 1200 1200" xmlns="http://www.w3.org/2000/svg">
 <g>
  <path d="m573.86 970.58c-18.02 1.9609-36.246-0.43359-53.145-6.9844-44.027-15.605-87.172-33.594-129.24-53.895-53.195-28.496-101.98-64.551-144.84-107.04-56.387-55.766-108.79-115.27-162.18-173.78-19.461-21.207-33.059-46.531-52.023-68.113h0.003906c-7.7617-11.203-16.852-21.426-27.074-30.441-8.9805-6.4883-6.1133-18.215 4.1172-17.715 27.32 1.4961 41.418-18.215 59.383-32.438 50.773-40.297 91.57-91.07 138.98-134.98v0.003906c34.895-34.047 73.719-63.82 115.64-88.699 31.812-17.965 64.125-32.684 102.3-26.199 14.66 2.1406 28.77 7.0977 41.543 14.598 14.473 8.7344 29.566 16.594 44.785 23.828h0.003906c13.465 7.5508 28.77 11.199 44.195 10.539 15.422-0.66016 30.359-5.6055 43.129-14.281 9.6055-6.4883 20.461-11.102 30.688-16.719h0.003906c21.938-13.012 46.973-19.875 72.48-19.875s50.543 6.8633 72.48 19.875c66.125 36.34 126.43 82.387 178.9 136.61 30.09 31.254 66.73 55.453 107.29 70.859 40.254 13.324 79.145 30.453 116.14 51.148 26.82 16.469 29.566 27.945 9.3555 49.902h0.003906c-104.2 115.91-220.04 220.8-345.69 313-65.742 45.156-139.5 77.336-217.32 94.812-16.48 3.1016-33.152 5.1055-49.902 5.9883zm-513.23-411.68c3.8359 11.234 9.9492 21.555 17.965 30.312 53.645 64 107.91 126.88 166.79 187.13l0.003906 0.003906c60.145 61.047 131.47 109.96 210.08 144.09 62.375 27.695 126.25 42.168 193.74 21.082 61.938-18.645 121.07-45.586 175.78-80.09 72.48-46.785 135.61-104.92 198.73-162.93 42.488-36.727 82.652-76.059 120.26-117.77 9.0742-7.7344 15.957-17.715 19.961-28.945-9.8555 2.1211-18.836 6.9844-25.699 4.9883-44.785-13.098-72.355 12.477-105.66 37.426-148.33 106.54-311.88 169.66-498.14 153.45v0.003906c-51.75-3.5938-101.95-19.227-146.59-45.66-61.254-37.426-116.89-83.211-181.64-115.52-46.156-23.453-91.191-43.414-145.84-27.695zm176.4-1.9961c16.668 15.551 35.492 28.621 55.891 38.797 25.652 12.418 49.355 28.516 70.359 47.781 40.457 35.805 89.145 61.047 141.72 73.48 27.82 6.4883 56.387 9.6055 84.332 15.844 40.543 8.9805 80.09 2.6211 119.64-4.9883 58.633-11.352 112.28-37.426 167.79-58.258 44.785-17.215 78.219-49.902 114.27-78.594l0.003906-0.003907c9.3281-8.3164 13.891-20.738 12.16-33.117-1.7266-12.375-9.5195-23.07-20.77-28.512-44.66-23.203-89.074-47.031-134.98-67.867-33.684-15.344-67.492-25.699-106.41-7.4844h0.003906c-47.387 23.121-99.414 35.137-152.14 35.137-52.723 0-104.75-12.016-152.14-35.137-43.164-19.961-82.336-13.723-120.76 8.9805-24.949 15.094-49.902 31.938-74.852 47.781-6.3633 3.9922-13.848 7.4844-13.223 16.219s10.605 9.8555 16.965 11.227c37.426 7.6094 73.98 17.84 110.91 27.695 82.711 22.082 165.3 46.656 252.25 46.781 4.6172 0 10.73-1.2461 13.723 7.3594v0.003907c-9.582 5.8828-21.051 7.8906-32.062 5.6133-100.55-2.9922-195.36-34.434-291.55-59.133-19.461-5.1133-38.672-13.098-61.129-9.6055zm204.72-301.03c-25.672-10.238-54.293-10.238-79.965 0-18.52 7.8672-36.168 17.652-52.648 29.195-96.434 62.375-164.18 155.57-251.38 227.8-10.355 8.6094-4.2422 14.844 4.8672 18.59v-0.003906c13.027 4.6289 26.992 6 40.672 3.9922 46.336-5.9961 91.074-20.906 131.74-43.914 29.191-14.723 57.887-30.812 86.078-47.531 42.168-24.949 84.082-22.332 127.5-3.3672h0.003906c22.984 10.766 47.023 19.129 71.73 24.949 73.223 14.816 149.27 5.582 216.82-26.324 29.996-13.891 64.344-15.016 95.184-3.1172 45.035 15.594 84.582 42.914 129.87 58.383 44.434 17.039 89.945 31.125 136.23 42.168 22.332 4.6172 42.914-3.4922 63.875-7.3594-0.875-11.602-9.4805-12.477-15.469-16.219-43.789-25.949-92.941-40.172-138.73-62.375-18.734-9.3984-35.633-22.074-49.902-37.426-12.477-12.477-24.949-25.824-37.426-37.426-47.031-44.246-99.418-82.426-155.94-113.65-43.039-23.828-84.832-20.336-127.12 1.2461-30.566 15.719-58.883 37.426-94.062 33.809-9.1055 12.477 13.598 16.965 2.7461 26.574-8.1328 5.2227-17.887 7.3047-27.445 5.8633-9.582-0.40234-18.918-3.1445-27.195-7.9844-17.59-9.3555-35.555-18.09-52.77-28.32-12.613-7.875-27.941-10.137-42.293-6.2383-31.062 7.1094-62.375 12.477-88.449 32.934-4.2422 3.2422-9.8555 5.4883-13.348-0.75-2.3711-4.1172 0.75-8.2344 3.6172-11.352v0.003906c2.0508-2.3945 4.5-4.418 7.2344-5.9883 35.305-19.461 70.234-39.672 112.28-39.547 8.5078 1.8086 17.359-0.66016 23.703-6.6133z"/>
  <path d="m712.84 602.18c79.469-5.7383 155.19-28.445 238.28-51.773-53.645 38.051-190.12 66.742-238.28 51.773z"/>
  <path d="m570.37 321.36c9.2812-13.336 22.836-23.105 38.426-27.695 4.1641-1.5391 8.8008 0.50391 10.477 4.6172 1.7734 4.1016 0.35547 8.8828-3.3672 11.352-12.973 7.4844-25.574 17.34-45.535 11.727z"/>
 </g>
</svg>
