<?xml version="1.0" encoding="UTF-8"?>
<svg width="1200pt" height="1200pt" version="1.1" viewBox="0 0 1200 1200" xmlns="http://www.w3.org/2000/svg">
 <g>
  <path d="m1199.8 538.26c1.5078 11.809-5.5273 18.215-12.562 25.121-56.652 55.898-106.9 116.82-161.54 174.98-44.844 47.734-87.93 97.855-142.7 134.28l0.003907 0.003907c-78.918 54.082-171.8 84.184-267.44 86.672-110.67 2.6367-209.9-32.031-303.86-86.926h0.003906c-60.66-36.145-118.63-76.613-173.48-121.09-51.699-38.883-92.004-90.945-116.7-150.74-3.8516-10.051-8.0391-19.973-12.562-29.77-14.07-31.531-11.684-45.098 13.691-68.082v-0.003906c8.6602-7.8828 17.895-15.105 27.637-21.605 55.648-36.93 102.75-83.91 151.62-129.01 39.316-36.43 81.273-69.715 134.41-84.539 23.566-7.8203 49.273-5.9648 71.477 5.1523 16.078 8.2891 34.043 12.562 50.246 20.852 11.449 6.0625 24.453 8.5508 37.332 7.1406 12.875-1.4102 25.035-6.6562 34.898-15.055 72.605-54.516 149.61-57.027 230.25-21.48 35.168 15.578 71.973 26.629 106.27 45.598 52.254 28.641 96.094 67.707 140.31 106.77 48.234 42.711 97.602 84.035 157.52 109.79 11.184 5.0234 23.617 8.0391 35.176 11.934zm-1176.3-6.6602c8.7695 6.7188 19.617 10.141 30.652 9.6719 66.574 9.4219 129.26-13.566 193.57-23.113h-0.003906c28.648-4.1211 56.719-11.539 83.66-22.105 46.797-18.453 95.082-32.867 144.33-43.086 56.176-13.426 114.35-16.367 171.59-8.668 80.77 12.562 157.65 39.695 234.77 64.691 77.129 24.996 154.51 33.035 233.39 38.816 6.4062 0 15.449 3.2656 18.09-7.2852-2.1367-6.0312-7.5352-7.7891-11.934-10.551v-0.003906c-60.695-38.238-116.72-83.434-166.94-134.66-12.516-11.625-25.961-22.211-40.199-31.652-50.246-36.805-106.02-59.543-163.3-81.398-77.629-29.645-150.74-27.258-217.82 26.129-20.496 16.355-47.934 21.094-72.73 12.559-20.391-6.375-40.086-14.793-58.785-25.121-25.777-14.082-56.879-14.367-82.906-0.75391-37.898 19.707-73.004 44.379-104.39 73.359-45.723 38.816-87.93 81.902-136.67 117.32-20.543 12.168-38.926 27.66-54.395 45.848zm1112.2 53.008v0.003906c-4.9688 1.0508-9.8438 2.5234-14.57 4.3945-48.781 26.57-99.863 48.688-152.62 66.074-46.73 15.703-95.09 25.121-142.45 37.684-82.879 21.703-169.2 27.035-254.12 15.703-28.641-3.6445-57.406-5.5273-86.047-9.168v-0.003906c-12.75-1.9102-25.59 2.8281-34.043 12.562-31.402 31.402-42.207 71.223-47.484 113.05-0.75391 5.6523 3.8945 13.316-6.1562 14.695-1.6328-1.5078-3.6445-2.6367-4.3984-4.3984l0.007813 0.003906c-1.7109-4.0273-2.9336-8.2461-3.6445-12.562-2.9531-36.777 7.4336-73.387 29.27-103.13 4.1445-6.2812 9.168-12.562 13.566-17.965 1.4492-1.6094 2.1758-3.7422 2.0078-5.9023-0.16406-2.1602-1.207-4.1602-2.8867-5.5273-3.6758-4.2734-9.9102-5.2305-14.699-2.2617-3.7773 3.6992-6.9922 7.9336-9.5469 12.562-5.4688 7.9531-11.336 15.629-17.586 22.988-6.4062 6.7852-9.168 18.09-21.48 20.098-1.1289-25.121 22.609-39.191 26.504-60.797-1.8594-1.7148-3.9258-3.1914-6.1523-4.3984-82.781-28.262-167.95-48.988-249.22-82.277-18.215-7.4102-37.684-20.352-57.027-18.59h-0.003906c-15.113 0.48828-30.18-1.9883-44.344-7.2852-1.832 2.6719-2.8867 5.8047-3.043 9.043-0.15625 3.2383 0.59375 6.457 2.1641 9.2969 22.031 53.961 57.332 101.49 102.63 138.18 55.066 44.523 113.11 85.234 173.73 121.84 87.93 50.246 179.13 90.441 283.51 90.316 55.02 0 109.16-2.1367 160.66-23.113 68.711-27.887 134.16-60.547 187.29-115.06 43.59-44.469 83.41-92.453 127.62-136.29v0.003906c24.422-23.586 45.473-50.43 62.555-79.766zm-31.277-14.445v0.003907c-16.922-5.8242-34.531-9.4141-52.379-10.68-46.961-2.2852-93.559-9.3984-139.06-21.227-56.527-15.324-113.05-34.043-168.2-52.508-106.86-37.207-223.28-36.41-329.61 2.2617-28.012 10.176-56.023 20.852-84.664 29.016-52.34 14.824-105.35 27.051-159.03 36.68-7.7891 1.2578-19.598 0-20.727 11.18-1.1289 11.18 9.6719 15.578 18.215 19.848 5.7773 2.7617 12.562 4.2695 18.09 6.6562 30.648 12.562 62.809 22.234 93.207 33.539 50.246 18.59 102.12 31.152 153.38 45.723 51.25 14.574 103.25 15.328 155.13 22.109 50.895 7.0781 102.54 6.8672 153.38-0.62891 92.855-14.957 184.11-38.547 272.59-70.469 32.969-11.156 63.434-28.652 89.688-51.5z"/>
  <path d="m657.34 741.5c72.102 5.4023 142.95-22.988 213.55-50.875v0.003906c9.793-4.0703 20.039-6.9375 30.523-8.543 13.691-1.8828 26.504-1.3828 32.41 13.441h-0.003907c2.7422 6.4688 3.4023 13.633 1.8945 20.496-1.5078 6.8633-5.1094 13.09-10.309 17.816-17.184 17.992-39.367 30.422-63.688 35.672-34.797 8.0391-65.949 24.371-99.488 35.047-42.039 12.27-84.84 21.75-128.12 28.391-15.984 2.0859-32.227 0.67188-47.609-4.1445-22.734-6.0312-32.535-18.34-32.66-37.684-0.5625-10.309 2.457-20.492 8.5469-28.828 6.0898-8.332 14.875-14.305 24.867-16.898 20.977-6.2812 42.582-3.8945 70.094-3.8945zm-14.949 17.711c-13.566 0.87891-31.906-4.2695-49.492 2.8906-5.6797 1.8242-10.613 5.4414-14.059 10.312-3.4453 4.875-5.2109 10.73-5.0352 16.695-0.066406 5.4492 1.7812 10.754 5.2266 14.977 3.4453 4.2266 8.2617 7.1055 13.617 8.1367 8.2031 2.5117 16.609 4.3203 25.121 5.4023 25.449 2.1562 51.074-0.78906 75.371-8.668 62.809-15.449 121.22-41.703 182.27-61.301 13.203-4.8398 25.23-12.418 35.297-22.234 4.8984-4.2695 9.4219-9.2969 6.2812-16.707s-11.43-8.668-18.969-6.0312c-19.219 6.5312-38.562 12.562-57.531 19.973-62.43 23.492-125.86 41.457-198.09 36.559z"/>
 </g>
</svg>
