<svg xmlns="http://www.w3.org/2000/svg" xmlns:xlink="http://www.w3.org/1999/xlink" width="260" zoomAndPan="magnify" viewBox="0 0 194.87999 195.000001" height="260" preserveAspectRatio="xMidYMid meet" version="1.0"><path fill="#ffffff" d="M 22.960938 70.871094 C 22.960938 70.871094 28.882812 82.511719 31.472656 95.027344 C 34.066406 107.550781 29.871094 129.523438 62.820312 146.980469 C 95.71875 164.410156 136.398438 150.238281 143.984375 131.3125 C 153.503906 107.550781 160.222656 98 177.84375 89.207031 C 177.84375 89.207031 164.375 89.703125 155.039062 73.117188 C 149.414062 63.097656 144.703125 48.777344 123.113281 46.21875 C 110.066406 44.667969 104.292969 55.277344 96.257812 53.203125 C 88.226562 51.132812 84.554688 43.070312 72.683594 43.421875 C 44.183594 44.253906 45.242188 77.113281 22.960938 70.871094 " fill-opacity="1" fill-rule="nonzero"/><path fill="#c25196" d="M 26.675781 73.738281 C 28.675781 78.25 31.835938 86.179688 33.582031 94.59375 C 34.042969 96.835938 34.296875 99.335938 34.566406 101.980469 C 35.8125 114.289062 37.523438 131.144531 63.828125 145.082031 C 80.488281 153.902344 101.273438 155.203125 119.4375 148.546875 C 130.679688 144.429688 139.113281 137.683594 141.984375 130.5 C 150.171875 110.089844 156.53125 99.105469 171.429688 90.25 C 166.253906 88.585938 158.953125 84.445312 153.171875 74.167969 C 152.480469 72.9375 151.800781 71.644531 151.101562 70.3125 C 146.230469 61.011719 140.707031 50.46875 122.863281 48.351562 C 116.539062 47.601562 112.167969 49.976562 107.941406 52.277344 C 103.992188 54.429688 100.261719 56.453125 95.71875 55.285156 C 92.214844 54.378906 89.503906 52.492188 86.875 50.664062 C 82.96875 47.945312 79.25 45.386719 72.742188 45.566406 C 59.417969 45.960938 53.148438 53.734375 47.082031 61.25 C 41.792969 67.800781 36.355469 74.539062 26.675781 73.738281 Z M 95.488281 157.050781 C 83.726562 157.050781 72.042969 154.300781 61.816406 148.878906 C 33.476562 133.871094 31.558594 114.941406 30.289062 102.410156 C 30.03125 99.890625 29.789062 97.496094 29.371094 95.464844 C 26.867188 83.367188 21.105469 71.960938 21.046875 71.847656 C 20.660156 71.085938 20.757812 70.167969 21.300781 69.511719 C 21.84375 68.851562 22.722656 68.570312 23.542969 68.804688 C 33.269531 71.535156 37.65625 66.085938 43.734375 58.554688 C 49.785156 51.054688 57.316406 41.71875 72.617188 41.269531 C 80.644531 41.054688 85.226562 44.28125 89.332031 47.140625 C 91.75 48.824219 94.035156 50.410156 96.796875 51.125 C 99.691406 51.875 102.433594 50.382812 105.886719 48.503906 C 110.25 46.128906 115.691406 43.167969 123.371094 44.085938 C 143.46875 46.464844 149.8125 58.582031 154.910156 68.316406 C 155.585938 69.609375 156.246094 70.867188 156.917969 72.0625 C 165.433594 87.207031 177.285156 87.058594 177.78125 87.0625 C 178.785156 87.070312 179.675781 87.710938 179.925781 88.691406 C 180.164062 89.664062 179.703125 90.683594 178.804688 91.132812 C 161.394531 99.816406 155.070312 109.417969 145.972656 132.101562 C 142.601562 140.515625 133.46875 147.984375 120.921875 152.578125 C 112.765625 155.570312 104.101562 157.050781 95.488281 157.050781 " fill-opacity="1" fill-rule="nonzero"/><path fill="#c25196" d="M 33.9375 82.410156 C 33.9375 82.410156 36.808594 85.140625 41.382812 86.375 C 44.230469 87.144531 47.738281 87.328125 51.613281 85.914062 C 61.722656 82.222656 66.773438 82.453125 75.710938 86.984375 C 84.644531 91.507812 85.226562 93.296875 93.582031 93.296875 C 101.9375 93.296875 105.824219 87.757812 117.476562 89.605469 C 129.144531 91.449219 139.316406 99.355469 152.066406 98 C 152.066406 98 131.859375 109.382812 118.453125 110.394531 C 108.058594 111.175781 84.4375 117.75 67.730469 107.0625 C 62.613281 103.785156 54.519531 96.851562 50.386719 93.757812 C 41.023438 86.753906 33.9375 82.410156 33.9375 82.410156 " fill-opacity="1" fill-rule="nonzero"/><path fill="#c25196" d="M 45.84375 88.527344 C 47.542969 89.734375 49.386719 91.070312 51.316406 92.515625 C 52.742188 93.578125 54.628906 95.097656 56.703125 96.761719 C 60.71875 99.980469 65.269531 103.636719 68.570312 105.746094 C 81.585938 114.078125 99.25 111.5 110.941406 109.777344 C 113.8125 109.363281 116.289062 109.003906 118.335938 108.847656 C 127.042969 108.183594 138.902344 102.917969 145.769531 99.53125 C 140.253906 98.941406 135.183594 97 130.21875 95.105469 C 125.820312 93.425781 121.65625 91.839844 117.238281 91.140625 C 110.785156 90.113281 106.835938 91.503906 103.023438 92.839844 C 100.207031 93.832031 97.300781 94.851562 93.585938 94.851562 C 86.820312 94.851562 84.726562 93.683594 80.144531 91.125 C 78.761719 90.351562 77.121094 89.433594 75.007812 88.367188 C 66.488281 84.054688 61.792969 83.851562 52.148438 87.375 C 50.066406 88.132812 47.957031 88.519531 45.84375 88.527344 Z M 91.917969 114.664062 C 83.425781 114.664062 74.511719 113.238281 66.890625 108.367188 C 63.453125 106.167969 58.835938 102.457031 54.757812 99.191406 C 52.714844 97.542969 50.855469 96.054688 49.453125 95.007812 C 44.71875 91.460938 40.542969 88.585938 37.601562 86.625 C 34.699219 85.257812 32.960938 83.628906 32.863281 83.542969 C 32.289062 82.992188 32.21875 82.097656 32.703125 81.464844 C 33.183594 80.835938 34.066406 80.675781 34.746094 81.085938 C 34.78125 81.105469 36.414062 82.109375 39.113281 83.898438 C 39.914062 84.269531 40.808594 84.609375 41.789062 84.871094 C 44.894531 85.710938 48.019531 85.570312 51.082031 84.453125 C 61.609375 80.609375 67.050781 80.855469 76.410156 85.59375 C 78.570312 86.6875 80.246094 87.617188 81.660156 88.410156 C 86.003906 90.835938 87.628906 91.742188 93.585938 91.742188 C 96.765625 91.742188 99.304688 90.851562 101.992188 89.90625 C 105.980469 88.511719 110.5 86.921875 117.726562 88.070312 C 122.46875 88.816406 126.96875 90.539062 131.335938 92.199219 C 138.121094 94.789062 144.535156 97.238281 151.902344 96.453125 C 152.636719 96.40625 153.328125 96.824219 153.550781 97.523438 C 153.78125 98.230469 153.476562 98.988281 152.832031 99.355469 C 151.992188 99.824219 132.164062 110.917969 118.566406 111.941406 C 116.632812 112.085938 114.199219 112.445312 111.394531 112.859375 C 105.859375 113.671875 99.027344 114.664062 91.917969 114.664062 " fill-opacity="1" fill-rule="nonzero"/><path fill="#ffffff" d="M 79.378906 111.8125 C 79.378906 111.8125 91.253906 105.183594 96.496094 100.136719 C 101.746094 95.085938 108.207031 87.535156 112.820312 80.675781 C 121.179688 68.230469 138.652344 57.582031 150.179688 61.867188 C 166.253906 67.84375 162.96875 81.527344 158.105469 89.726562 C 153.253906 97.929688 152.066406 98 147.988281 101.261719 C 144.859375 103.765625 138.074219 108.066406 121.714844 109.96875 C 106.972656 111.683594 90.765625 114.636719 79.378906 111.8125 " fill-opacity="1" fill-rule="nonzero"/><path fill="#c25196" d="M 83.792969 111.039062 C 92.480469 112.125 103.382812 110.726562 113.980469 109.363281 C 116.519531 109.039062 119.050781 108.71875 121.539062 108.421875 C 133.195312 107.0625 141.765625 104.253906 147.023438 100.046875 C 147.65625 99.53125 148.238281 99.097656 148.761719 98.691406 C 151.46875 96.632812 152.820312 95.597656 156.773438 88.933594 C 158.449219 86.097656 162.113281 78.800781 159.800781 72.28125 C 158.402344 68.324219 154.984375 65.3125 149.636719 63.324219 C 138.976562 59.371094 122.082031 69.667969 114.109375 81.542969 C 109.734375 88.058594 103.246094 95.796875 97.574219 101.25 C 94.050781 104.648438 87.78125 108.636719 83.792969 111.039062 Z M 90.722656 114.535156 C 86.503906 114.535156 82.539062 114.195312 79 113.3125 C 78.382812 113.15625 77.921875 112.648438 77.839844 112.015625 C 77.753906 111.378906 78.0625 110.761719 78.621094 110.449219 C 78.738281 110.382812 90.382812 103.867188 95.417969 99.015625 C 100.945312 93.695312 107.269531 86.160156 111.53125 79.808594 C 120.15625 66.949219 138.378906 55.824219 150.722656 60.410156 C 156.964844 62.738281 161.007812 66.378906 162.726562 71.246094 C 165.480469 79.003906 161.347656 87.308594 159.449219 90.519531 C 155.1875 97.707031 153.578125 98.933594 150.648438 101.167969 C 150.132812 101.554688 149.582031 101.980469 148.957031 102.476562 C 143.171875 107.105469 134.316406 110.0625 121.898438 111.515625 C 119.421875 111.800781 116.898438 112.125 114.375 112.445312 C 106.347656 113.476562 98.144531 114.535156 90.722656 114.535156 " fill-opacity="1" fill-rule="nonzero"/><path fill="#ffffff" d="M 146.699219 66.53125 C 146.699219 66.53125 140.539062 65.578125 134.574219 68.425781 L 146.699219 66.53125 " fill-opacity="1" fill-rule="nonzero"/><path fill="#c25196" d="M 134.1875 68.617188 C 134.078125 68.402344 134.167969 68.136719 134.390625 68.039062 C 138.035156 66.289062 141.738281 65.941406 144.132812 65.941406 C 145.734375 65.941406 146.738281 66.105469 146.753906 66.105469 L 146.765625 66.105469 C 146.996094 66.144531 147.160156 66.363281 147.125 66.597656 C 147.085938 66.832031 146.855469 66.992188 146.625 66.953125 C 146.625 66.953125 145.667969 66.808594 144.132812 66.808594 C 141.820312 66.808594 138.238281 67.140625 134.769531 68.816406 C 134.703125 68.84375 134.640625 68.859375 134.574219 68.859375 C 134.417969 68.859375 134.261719 68.765625 134.1875 68.617188 " fill-opacity="1" fill-rule="nonzero"/><path fill="#ffffff" d="M 130.789062 70.871094 C 130.789062 70.871094 116.703125 82.617188 110.75 92.492188 C 104.78125 102.367188 95.71875 107.550781 95.71875 107.550781 L 130.789062 70.871094 " fill-opacity="1" fill-rule="nonzero"/><path fill="#c25196" d="M 95.34375 107.75 C 95.222656 107.550781 95.296875 107.28125 95.503906 107.164062 C 95.503906 107.144531 104.488281 102.023438 110.371094 92.265625 C 116.410156 82.289062 130.496094 70.558594 130.503906 70.539062 L 130.515625 70.539062 C 130.691406 70.390625 130.957031 70.414062 131.113281 70.597656 C 131.269531 70.78125 131.234375 71.046875 131.058594 71.203125 C 131.046875 71.226562 117 82.945312 111.117188 92.710938 C 105.078125 102.6875 95.960938 107.890625 95.933594 107.917969 C 95.867188 107.953125 95.792969 107.972656 95.71875 107.972656 C 95.570312 107.972656 95.417969 107.898438 95.34375 107.75 " fill-opacity="1" fill-rule="nonzero"/><path fill="#c25196" d="M 122.164062 109.914062 C 121.871094 109.382812 122.054688 108.71875 122.589844 108.433594 C 132.273438 103.113281 138.027344 96.097656 141.371094 90.410156 C 144.71875 84.71875 145.632812 80.453125 145.632812 80.445312 C 145.75 79.855469 146.339844 79.480469 146.921875 79.609375 C 147.511719 79.738281 147.886719 80.316406 147.757812 80.898438 C 147.722656 81.042969 143.800781 99.246094 123.636719 110.339844 C 123.472656 110.429688 123.296875 110.476562 123.113281 110.476562 C 122.726562 110.476562 122.359375 110.273438 122.164062 109.914062 " fill-opacity="1" fill-rule="nonzero"/><path fill="#c25196" d="M 153.660156 95.394531 C 153.457031 94.832031 153.742188 94.207031 154.324219 94.003906 C 154.324219 94.003906 157.902344 92.730469 161.753906 91.457031 C 162.324219 91.269531 162.929688 91.574219 163.125 92.148438 C 163.308594 92.71875 163.003906 93.335938 162.433594 93.523438 C 158.613281 94.785156 155.058594 96.050781 155.039062 96.054688 C 154.929688 96.097656 154.8125 96.117188 154.691406 96.117188 C 154.238281 96.117188 153.816406 95.835938 153.660156 95.394531 " fill-opacity="1" fill-rule="nonzero"/><path fill="#c25196" d="M 86.972656 130.914062 C 86.371094 130.867188 85.921875 130.34375 85.972656 129.746094 C 86.105469 127.949219 86.167969 125.898438 86.167969 123.882812 C 86.167969 118.929688 85.855469 114.25 85.855469 114.234375 L 85.855469 114.242188 C 85.8125 113.644531 86.265625 113.117188 86.867188 113.082031 C 87.464844 113.035156 87.984375 113.496094 88.027344 114.09375 C 88.027344 114.105469 88.34375 118.835938 88.34375 123.882812 C 88.34375 125.933594 88.285156 128.042969 88.144531 129.921875 C 88.097656 130.480469 87.625 130.925781 87.058594 130.925781 C 87.027344 130.925781 87 130.914062 86.972656 130.914062 " fill-opacity="1" fill-rule="nonzero"/><path fill="#c25196" d="M 69.460938 125.585938 C 68.875 125.4375 68.515625 124.855469 68.65625 124.269531 C 70.625 116 72.957031 111.902344 73.003906 111.828125 L 73.011719 111.828125 C 73.304688 111.316406 73.96875 111.128906 74.488281 111.433594 C 75.007812 111.730469 75.191406 112.390625 74.890625 112.917969 C 74.914062 112.933594 72.691406 116.726562 70.777344 124.773438 C 70.652344 125.28125 70.203125 125.613281 69.710938 125.613281 C 69.628906 125.613281 69.546875 125.601562 69.460938 125.585938 " fill-opacity="1" fill-rule="nonzero"/><path fill="#c25196" d="M 103.992188 126.808594 C 103.503906 119.71875 99.996094 113.347656 99.984375 113.339844 C 99.691406 112.824219 99.875 112.160156 100.398438 111.867188 C 100.925781 111.582031 101.589844 111.765625 101.882812 112.289062 C 101.910156 112.363281 105.609375 118.964844 106.164062 126.652344 C 106.199219 127.25 105.75 127.777344 105.152344 127.820312 L 105.078125 127.820312 C 104.507812 127.820312 104.027344 127.378906 103.992188 126.808594 " fill-opacity="1" fill-rule="nonzero"/><path fill="#c25196" d="M 119.734375 126.875 C 119.023438 121.691406 116.695312 118.089844 114.523438 115.742188 C 112.359375 113.40625 110.445312 112.402344 110.433594 112.402344 L 110.445312 112.402344 C 109.910156 112.132812 109.707031 111.472656 109.984375 110.9375 C 110.261719 110.414062 110.921875 110.199219 111.457031 110.476562 C 111.578125 110.542969 120.304688 115.144531 121.886719 126.578125 C 121.972656 127.175781 121.558594 127.730469 120.957031 127.804688 C 120.914062 127.8125 120.855469 127.8125 120.8125 127.8125 C 120.269531 127.8125 119.808594 127.417969 119.734375 126.875 " fill-opacity="1" fill-rule="nonzero"/><path fill="#c25196" d="M 126.566406 118.652344 C 125.875 116.285156 124.320312 114.417969 122.902344 113.136719 C 121.492188 111.867188 120.304688 111.242188 120.304688 111.242188 C 119.769531 110.957031 119.566406 110.300781 119.855469 109.777344 C 120.128906 109.234375 120.785156 109.03125 121.328125 109.316406 C 121.410156 109.390625 126.898438 112.226562 128.65625 118.042969 C 128.828125 118.617188 128.5 119.214844 127.917969 119.386719 C 127.816406 119.417969 127.714844 119.433594 127.613281 119.433594 C 127.136719 119.433594 126.710938 119.128906 126.566406 118.652344 " fill-opacity="1" fill-rule="nonzero"/><path fill="#c25196" d="M 57.8125 118.042969 C 57.277344 117.757812 57.0625 117.105469 57.34375 116.5625 C 59.566406 112.363281 65.734375 105.597656 65.761719 105.550781 C 66.164062 105.109375 66.851562 105.082031 67.296875 105.488281 C 67.742188 105.882812 67.78125 106.5625 67.378906 107.015625 C 67.371094 107.035156 61.199219 113.863281 59.28125 117.585938 C 59.085938 117.953125 58.703125 118.164062 58.308594 118.164062 C 58.140625 118.164062 57.96875 118.128906 57.8125 118.042969 " fill-opacity="1" fill-rule="nonzero"/><path fill="#c25196" d="M 52.039062 107.089844 C 51.578125 106.691406 51.523438 106.011719 51.921875 105.550781 C 53.824219 103.40625 59.417969 100.476562 59.476562 100.414062 C 60.007812 100.128906 60.660156 100.332031 60.949219 100.863281 C 61.234375 101.378906 61.035156 102.042969 60.507812 102.328125 C 60.507812 102.339844 54.777344 105.488281 53.574219 106.96875 C 53.355469 107.21875 53.050781 107.347656 52.746094 107.347656 C 52.492188 107.347656 52.242188 107.261719 52.039062 107.089844 " fill-opacity="1" fill-rule="nonzero"/><path fill="#c25196" d="M 68.832031 85.699219 C 66.238281 83.339844 65.488281 80.15625 65.492188 77.335938 C 65.503906 72.976562 67.199219 69.21875 67.222656 69.144531 L 67.230469 69.144531 C 67.472656 68.597656 68.113281 68.359375 68.660156 68.597656 C 69.210938 68.847656 69.453125 69.488281 69.210938 70.039062 C 69.234375 70.054688 67.65625 73.550781 67.667969 77.335938 C 67.675781 79.820312 68.296875 82.273438 70.300781 84.089844 C 70.746094 84.496094 70.78125 85.191406 70.367188 85.632812 C 70.152344 85.863281 69.863281 85.984375 69.566406 85.984375 C 69.304688 85.984375 69.039062 85.890625 68.832031 85.699219 " fill-opacity="1" fill-rule="nonzero"/><path fill="#c25196" d="M 59.738281 84.253906 C 55.738281 82.453125 55.1875 78.515625 55.199219 76.59375 C 55.199219 76.476562 55.207031 76.378906 55.207031 76.300781 L 55.214844 76.300781 C 55.234375 75.699219 55.738281 75.238281 56.335938 75.265625 C 56.9375 75.285156 57.402344 75.789062 57.382812 76.386719 C 57.375 76.46875 57.375 76.53125 57.375 76.59375 C 57.394531 78.242188 57.800781 81.019531 60.632812 82.269531 C 61.179688 82.507812 61.421875 83.15625 61.179688 83.703125 C 60.996094 84.109375 60.597656 84.347656 60.183594 84.347656 C 60.035156 84.347656 59.882812 84.316406 59.738281 84.253906 " fill-opacity="1" fill-rule="nonzero"/><path fill="#c25196" d="M 84.144531 92.699219 C 78.082031 90.460938 76.503906 85.476562 76.558594 81.65625 C 76.5625 78.25 77.628906 75.558594 77.652344 75.484375 L 77.660156 75.484375 C 77.871094 74.925781 78.5 74.648438 79.0625 74.871094 C 79.621094 75.085938 79.894531 75.714844 79.675781 76.277344 C 79.695312 76.292969 78.730469 78.714844 78.734375 81.65625 C 78.789062 85.027344 79.808594 88.699219 84.917969 90.660156 C 85.476562 90.871094 85.757812 91.503906 85.542969 92.066406 C 85.378906 92.5 84.964844 92.769531 84.523438 92.769531 C 84.398438 92.769531 84.269531 92.746094 84.144531 92.699219 " fill-opacity="1" fill-rule="nonzero"/><path fill="#c25196" d="M 97.527344 92.613281 C 97.378906 92.023438 97.730469 91.433594 98.320312 91.285156 C 105.34375 89.527344 106.285156 83.59375 106.328125 80.007812 C 106.328125 78.570312 106.164062 77.644531 106.164062 77.640625 L 106.164062 77.644531 C 106.054688 77.054688 106.449219 76.488281 107.039062 76.382812 C 107.628906 76.273438 108.199219 76.664062 108.308594 77.253906 C 108.316406 77.304688 108.511719 78.390625 108.511719 80.007812 C 108.566406 83.863281 107.242188 91.304688 98.855469 93.398438 C 98.761719 93.417969 98.667969 93.433594 98.578125 93.433594 C 98.089844 93.433594 97.648438 93.105469 97.527344 92.613281 " fill-opacity="1" fill-rule="nonzero"/><path fill="#c25196" d="M 91.523438 94.304688 C 90.941406 94.136719 90.613281 93.527344 90.789062 92.953125 C 91.195312 91.582031 91.347656 90.070312 91.34375 88.664062 C 91.347656 85.851562 90.78125 83.527344 90.78125 83.519531 C 90.636719 82.9375 90.988281 82.347656 91.578125 82.207031 C 92.152344 82.0625 92.738281 82.414062 92.886719 83.003906 C 92.898438 83.046875 93.515625 85.558594 93.523438 88.664062 C 93.515625 90.21875 93.359375 91.921875 92.878906 93.570312 C 92.734375 94.042969 92.304688 94.347656 91.832031 94.347656 C 91.730469 94.347656 91.628906 94.335938 91.523438 94.304688 " fill-opacity="1" fill-rule="nonzero"/><path fill="#c25196" d="M 57.773438 56.796875 C 57.542969 56.542969 57.566406 56.152344 57.828125 55.921875 C 60.289062 53.71875 63.699219 51.21875 67.351562 50.453125 C 67.683594 50.386719 68.019531 50.601562 68.082031 50.9375 C 68.15625 51.273438 67.933594 51.601562 67.601562 51.675781 C 64.339844 52.332031 61.027344 54.714844 58.652344 56.84375 L 58.652344 56.851562 C 58.539062 56.953125 58.390625 57.003906 58.238281 57.003906 C 58.066406 57.003906 57.898438 56.933594 57.773438 56.796875 " fill-opacity="1" fill-rule="nonzero"/><path fill="#c25196" d="M 113.675781 54.789062 C 113.519531 54.472656 113.648438 54.101562 113.953125 53.949219 C 116.316406 52.800781 118.648438 51.894531 120.949219 51.894531 C 121.023438 51.894531 121.113281 51.894531 121.242188 51.902344 C 121.585938 51.929688 121.84375 52.222656 121.816406 52.5625 C 121.796875 52.902344 121.492188 53.164062 121.160156 53.136719 L 120.949219 53.136719 C 118.980469 53.132812 116.804688 53.941406 114.503906 55.070312 C 114.414062 55.113281 114.320312 55.132812 114.226562 55.132812 C 114 55.132812 113.777344 55.007812 113.675781 54.789062 " fill-opacity="1" fill-rule="nonzero"/><path fill="#c25196" d="M 80.949219 53.0625 C 77.816406 51.3125 72.6875 50.898438 72.679688 50.90625 L 72.679688 50.910156 C 72.335938 50.882812 72.074219 50.585938 72.101562 50.242188 C 72.128906 49.898438 72.417969 49.640625 72.769531 49.667969 C 72.808594 49.679688 78.03125 50.035156 81.550781 51.976562 C 84.871094 53.859375 92.316406 60.300781 99.082031 60.273438 C 99.3125 60.273438 99.542969 60.269531 99.785156 60.253906 C 102.25 60.085938 104.054688 59.398438 106.550781 58.179688 C 106.855469 58.03125 107.230469 58.15625 107.378906 58.460938 C 107.527344 58.769531 107.398438 59.144531 107.09375 59.296875 C 104.570312 60.535156 102.546875 61.320312 99.855469 61.492188 C 99.597656 61.503906 99.339844 61.515625 99.082031 61.515625 C 91.609375 61.484375 84.058594 54.753906 80.949219 53.0625 " fill-opacity="1" fill-rule="nonzero"/></svg>