<svg width="101" height="100" viewBox="0 0 101 100" fill="none" xmlns="http://www.w3.org/2000/svg">
<g clip-path="url(#clip0_710_159)">
<path d="M48.3217 80.8817C46.8201 81.0451 45.3012 80.8455 43.893 80.2996C40.2241 78.9992 36.6287 77.5001 33.123 75.8084C28.6901 73.4337 24.6247 70.4291 21.053 66.8884C16.3541 62.2412 11.9872 57.2826 7.53799 52.4067C5.91624 50.6395 4.78307 48.5291 3.20274 46.7306H3.20306C2.55625 45.7971 1.79873 44.9451 0.946895 44.1939C0.19852 43.6532 0.437453 42.676 1.28999 42.7176C3.56666 42.8423 4.7415 41.1997 6.23858 40.0145C10.4697 36.6564 13.8694 32.4253 17.8202 28.7661V28.7665C20.7282 25.9292 23.9635 23.4481 27.4569 21.3749C30.1079 19.8778 32.8007 18.6512 35.9819 19.1916C37.2036 19.37 38.3794 19.7831 39.4438 20.4081C40.6499 21.136 41.9077 21.791 43.1759 22.3938H43.1762C44.2983 23.023 45.5737 23.3271 46.8592 23.2721C48.1443 23.217 49.3891 22.8049 50.4532 22.082C51.2537 21.5413 52.1583 21.1568 53.0106 20.6887H53.0109C54.8391 19.6044 56.9253 19.0325 59.0509 19.0325C61.1765 19.0325 63.2628 19.6044 65.0909 20.6887C70.6013 23.7171 75.6267 27.5543 79.9992 32.0729C82.5067 34.6774 85.5601 36.694 88.9401 37.9778C92.2946 39.0881 95.5355 40.5156 98.6184 42.2401C100.853 43.6126 101.082 44.5689 99.398 46.3986H99.3983C90.715 56.0578 81.0617 64.7986 70.5909 72.482C65.1124 76.245 58.9659 78.9266 52.4809 80.383C51.1075 80.6414 49.7182 80.8084 48.3223 80.882L48.3217 80.8817ZM5.55257 46.575C5.87223 47.5112 6.38167 48.3713 7.04965 49.101C11.5201 54.4343 16.0422 59.6743 20.9488 64.6952L20.9491 64.6955C25.9612 69.7828 31.905 73.8588 38.4558 76.703C43.6537 79.0109 48.9767 80.217 54.6008 78.4598C59.7623 76.9061 64.69 74.661 69.2491 71.7857C75.2891 67.8869 80.55 63.0423 85.81 58.2082C89.3507 55.1476 92.6976 51.8699 95.8316 48.394C96.5878 47.7495 97.1614 46.9178 97.4951 45.9819C96.6738 46.1587 95.9254 46.564 95.3535 46.3976C91.6214 45.3061 89.3239 47.4374 86.5485 49.5164C74.1877 58.3948 60.5585 63.6548 45.0368 62.3039V62.3043C40.7243 62.0048 36.541 60.702 32.821 58.4993C27.7165 55.3804 23.0801 51.565 17.6843 48.8726C13.838 46.9182 10.0851 45.2548 5.53098 46.5647L5.55257 46.575ZM20.2526 46.4087C21.6416 47.7046 23.2102 48.7938 24.9102 49.6418C27.0478 50.6766 29.0231 52.0181 30.7734 53.6235C34.1448 56.6073 38.2022 58.7108 42.5834 59.7468C44.9017 60.2875 47.2823 60.5473 49.6111 61.0672C52.9897 61.8155 56.2852 61.2856 59.5811 60.6515C64.4672 59.7055 68.9377 57.5326 73.5636 55.7966C77.2957 54.3621 80.0818 51.6381 83.0861 49.2471L83.0864 49.2468C83.8637 48.5538 84.244 47.5187 84.0997 46.4871C83.9558 45.4558 83.3064 44.5646 82.3689 44.1111C78.6472 42.1775 74.9461 40.1918 71.1206 38.4555C68.3136 37.1768 65.4962 36.3139 62.2531 37.8318H62.2534C58.3045 39.7585 53.9689 40.7599 49.5751 40.7599C45.1815 40.7599 40.8459 39.7585 36.8967 37.8318C33.2997 36.1684 30.0354 36.6882 26.8334 38.5802C24.7543 39.838 22.6749 41.2417 20.5957 42.5619C20.0654 42.8946 19.4417 43.1856 19.4938 43.9135C19.5459 44.6414 20.3776 44.7348 20.9076 44.8491C24.0264 45.4832 27.0726 46.3357 30.1501 47.157C37.0426 48.9972 43.9251 51.045 51.1709 51.0554C51.5557 51.0554 52.0651 50.9516 52.3145 51.6687V51.669C51.516 52.1593 50.5602 52.3266 49.6426 52.1368C41.2635 51.8874 33.3626 49.2673 25.3468 47.209C23.7251 46.7829 22.1241 46.1175 20.2527 46.4086L20.2526 46.4087ZM37.3126 21.3228C35.1732 20.4697 32.7882 20.4697 30.6488 21.3228C29.1055 21.9784 27.6348 22.7938 26.2615 23.7558C18.2253 28.9537 12.5798 36.7199 5.31315 42.7391C4.45024 43.4565 4.95964 43.9761 5.71875 44.2883V44.2879C6.80434 44.6737 7.96809 44.7879 9.10809 44.6206C12.9694 44.1209 16.6976 42.8784 20.0864 40.9611C22.519 39.7342 24.9103 38.3934 27.2596 37.0002C30.7736 34.9211 34.2664 35.1392 37.8846 36.7196H37.8849C39.8002 37.6168 41.8035 38.3137 43.8624 38.7987C49.9643 40.0333 56.3016 39.2638 61.9307 36.605C64.4304 35.4474 67.2927 35.3537 69.8627 36.3452C73.6157 37.6447 76.9112 39.9214 80.6852 41.2105C84.3881 42.6304 88.1807 43.8042 92.0378 44.7245C93.8988 45.1093 95.6139 44.4335 97.3607 44.1112C97.2878 43.1444 96.5706 43.0715 96.0716 42.7596C92.4225 40.5972 88.3265 39.412 84.5107 37.5617C82.9496 36.7785 81.5413 35.7222 80.3522 34.4429C79.3125 33.4031 78.2732 32.2909 77.2334 31.324C73.3142 27.6369 68.9486 24.4552 64.2384 21.8532C60.6518 19.8675 57.1691 20.1585 53.6451 21.9571C51.0979 23.267 48.7382 25.0759 45.8066 24.7745C45.0478 25.8142 46.9397 26.1882 46.0354 26.989C45.3577 27.4242 44.5448 27.5977 43.7483 27.4776C42.9498 27.4441 42.1718 27.2155 41.4821 26.8122C40.0163 26.0326 38.5192 25.3047 37.0846 24.4522C36.0335 23.796 34.7562 23.6075 33.5602 23.9324C30.9717 24.5248 28.3623 24.9721 26.1894 26.6769C25.8359 26.947 25.3681 27.1342 25.0771 26.6144C24.8795 26.2713 25.1396 25.9282 25.3785 25.6684V25.6687C25.5494 25.4691 25.7535 25.3005 25.9814 25.1697C28.9235 23.5479 31.8342 21.8637 35.3381 21.8741C36.047 22.0248 36.7846 21.8191 37.3133 21.323L37.3126 21.3228Z" fill="white"/>
<path d="M59.9033 50.1816C66.5257 49.7034 72.8358 47.8112 79.76 45.8672C75.2896 49.0381 63.9167 51.429 59.9033 50.1816Z" fill="white"/>
<path d="M48.031 26.78C48.8044 25.6687 49.934 24.8546 51.2332 24.4721C51.5802 24.3439 51.9666 24.5141 52.1063 24.8569C52.254 25.1987 52.1359 25.5971 51.8257 25.8029C50.7446 26.4266 49.6945 27.2479 48.0311 26.7801L48.031 26.78Z" fill="white"/>
</g>
<defs>
<clipPath id="clip0_710_159">
<rect width="100" height="100" fill="white" transform="translate(0.5)"/>
</clipPath>
</defs>
</svg>
