<svg width="419" height="87" viewBox="0 0 419 87" fill="none" xmlns="http://www.w3.org/2000/svg">
<path d="M50.8577 86.1115L21.9202 48.0907V86.1115H0.94104V0.00732422H21.9202V37.7782L50.6285 0.00732422H75.2744L41.9202 42.1948L76.5035 86.1115H50.8577Z" fill="#FFF0EB"/>
<path d="M164.108 0.00732422L134.295 57.6532V86.1115H113.316V57.6532L83.5035 0.00732422H107.295L123.983 36.0698L140.545 0.00732422H164.108Z" fill="#FFF0EB"/>
<path d="M251.712 0.00732422L221.899 57.6532V86.1115H200.92V57.6532L171.108 0.00732422H194.899L211.587 36.0698L228.149 0.00732422H251.712Z" fill="#FFF0EB"/>
<path d="M335.754 86.1115H314.774L279.691 32.9865V86.1115H258.712V0.00732422H279.691L314.774 53.3615V0.00732422H335.754V86.1115Z" fill="#FFF0EB"/>
<path d="M392.67 86.1115L363.733 48.0907V86.1115H342.754V0.00732422H363.733V37.7782L392.441 0.00732422H417.087L383.733 42.1948L418.316 86.1115H392.67Z" fill="#FFF0EB"/>
</svg>
